<?xml version="1.0" standalone="no"?>
<!DOCTYPE svg PUBLIC "-//W3C//DTD SVG 20010904//EN"
 "http://www.w3.org/TR/2001/REC-SVG-20010904/DTD/svg10.dtd">
<svg version="1.0" xmlns="http://www.w3.org/2000/svg"
 width="360.000000pt" height="140.000000pt" viewBox="0 0 360.000000 140.000000"
 preserveAspectRatio="xMidYMid meet">
	<metadata>
		Created by potrace 1.16, written by Peter Selinger 2001-2019
	</metadata>
	<g transform="translate(0.000000,140.000000) scale(0.100000,-0.100000)"
	fill="#000000" stroke="none">
		<path d="M280 701 l0 -561 145 0 145 0 0 184 0 184 158 4 c140 3 162 6 204 27
70 34 122 91 152 166 22 56 26 80 26 170 0 89 -4 114 -25 168 -35 85 -97 147
-183 183 -66 26 -71 27 -344 32 l-278 5 0 -562z m450 291 c79 -30 103 -125 47
-186 -25 -27 -92 -46 -161 -46 l-46 0 0 125 0 125 58 -1 c31 0 77 -8 102 -17z" />
		<path d="M1185 1213 c-4 -27 -13 -84 -20 -128 -7 -44 -18 -116 -25 -160 -6
-44 -17 -118 -25 -165 -8 -47 -19 -121 -25 -165 -15 -103 -38 -249 -56 -350
-8 -44 -14 -86 -14 -92 0 -10 36 -13 148 -13 l148 0 13 98 c15 122 39 288 51
368 6 34 10 83 11 110 1 56 17 110 18 62 1 -15 7 -45 15 -65 7 -21 26 -83 41
-138 15 -55 30 -111 35 -125 4 -14 14 -50 23 -80 9 -30 28 -94 42 -143 l26
-87 103 0 104 0 15 43 c17 47 31 95 82 277 20 69 47 161 60 205 14 44 25 90
25 103 0 13 4 20 10 17 6 -3 10 -32 10 -64 0 -33 6 -94 14 -137 8 -44 19 -124
25 -179 14 -117 30 -223 37 -247 5 -16 21 -18 150 -18 166 0 153 -11 130 111
-8 41 -20 115 -26 164 -7 50 -18 124 -25 165 -7 41 -18 116 -25 165 -6 50 -16
113 -21 140 -6 28 -14 79 -19 115 -20 151 -31 226 -36 243 -5 15 -21 17 -158
17 l-153 0 -11 -25 c-7 -14 -12 -32 -12 -39 0 -7 -11 -49 -25 -92 -14 -44 -30
-97 -36 -119 -6 -22 -17 -58 -24 -80 -7 -22 -25 -85 -40 -140 -15 -55 -33
-115 -39 -133 l-12 -33 -23 83 c-13 46 -29 101 -36 123 -7 22 -18 60 -25 85
-7 25 -18 65 -26 90 -7 25 -25 86 -40 135 -14 50 -29 101 -33 115 l-8 25 -156
3 -156 3 -6 -48z" />
		<path d="M2220 1249 c0 -6 24 -47 52 -92 51 -77 96 -148 256 -399 l72 -114 0
-252 0 -252 155 0 155 0 0 261 0 260 25 33 c14 18 25 38 25 44 0 6 4 12 8 14
5 2 37 49 73 106 35 56 75 120 89 141 14 22 55 87 93 145 37 58 67 108 67 111
0 3 -82 4 -181 3 l-182 -3 -86 -167 c-47 -92 -88 -165 -91 -163 -3 2 -43 78
-90 169 l-85 166 -177 0 c-123 0 -178 -3 -178 -11z" />
	</g>
</svg>